<svg xmlns="http://www.w3.org/2000/svg" viewBox="0 0 414 338" width="414" height="338">
	<defs>
		<clipPath clipPathUnits="userSpaceOnUse" id="cp1">
			<path d="M-139 -205L1227 -205L1227 3879L-139 3879Z" />
		</clipPath>
	</defs>
	<style>
		tspan { white-space:pre }
		.shp0 { fill: #e6f3ff } 
		.shp1 { fill: #1894ff } 
		.shp2 { opacity: 0.58;fill: #00de9a } 
		.shp3 { opacity: 0.729;fill: #00de9a } 
		.shp4 { fill: #00de9a } 
		.shp5 { fill: #2361b5 } 
		.shp6 { fill: #c2e3ff } 
		.shp7 { opacity: 0.161;fill: #1894ff } 
		.shp8 { opacity: 0.078;fill: #2361b5 } 
		.shp9 { fill: #f4a28c } 
		.shp10 { opacity: 0.31;fill: #ce8172 } 
		.shp11 { fill: #000000 } 
		.shp12 { opacity: 0.078;fill: #000000 } 
	</style>
	<g id="Web 1366 – 8" clip-path="url(#cp1)">
		<g id="doctor_two_color">
			<path id="Rectangle 1933" class="shp0" d="M209.7 0.95L313.33 0.95L313.33 130.11L209.7 130.11L209.7 0.95Z" />
			<path id="Rectangle 1937" class="shp0" d="M105.93 175.84L413.67 175.84L413.67 329.28L105.93 329.28L105.93 175.84Z" />
			<path id="Rectangle 1938" class="shp1" d="M105.93 175.84L413.67 175.84L413.67 196.01L105.93 196.01L105.93 175.84Z" />
			<path id="Path 14183" class="shp2" d="M350.58 156.69C350.58 156.69 335.38 152.61 332.03 138.5C332.03 138.5 355.5 133.66 356.28 157.98L350.58 156.69Z" />
			<path id="Path 14184" class="shp3" d="M352.37 155.17C352.37 155.17 341.7 138.47 350.98 122.76C350.98 122.76 368.89 134.04 361.04 155.17L352.37 155.17Z" />
			<path id="Path 14185" class="shp4" d="M355.1 155.17C355.1 155.17 360.67 137.46 377.53 134.04C377.53 134.04 380.75 145.52 366.66 155.17L355.1 155.17Z" />
			<path id="Path 14186" class="shp5" d="M344.09 154.83L347.27 175.84L366.62 175.84L369.39 154.83L344.09 154.83Z" />
			<path id="Ellipse 40" class="shp6" d="M237.13 30.63C233.51 30.63 230.59 27.71 230.59 24.09C230.59 20.47 233.51 17.55 237.13 17.55C240.74 17.55 243.67 20.47 243.67 24.09C243.67 27.71 240.74 30.63 237.13 30.63Z" />
			<path id="Path 14193" class="shp6" d="M249.84 38.88C249 34.12 237.67 34.49 237.07 34.5C236.47 34.51 225.16 34.12 224.31 38.88C223.6 42.85 220.96 58.8 219.98 64.7C219.73 65.96 220.53 67.19 221.79 67.48L221.79 67.48C222.41 67.62 223.06 67.51 223.6 67.17C224.14 66.83 224.52 66.29 224.66 65.67L229.35 44.7L230.22 68.01L229.42 102.43C229.41 103.85 230.46 105.05 231.87 105.22L231.87 105.22C232.63 105.31 233.39 105.09 233.98 104.6C234.57 104.11 234.94 103.39 234.98 102.63L236.46 78.97C236.46 78.63 236.73 78.36 237.07 78.36C237.41 78.36 237.68 78.63 237.68 78.97L239.17 102.63C239.22 103.39 239.58 104.11 240.17 104.6C240.76 105.09 241.53 105.31 242.29 105.22L242.29 105.22C243.69 105.05 244.75 103.85 244.74 102.43L243.93 68.01L244.82 44.63L249.48 65.61C249.62 66.23 250 66.77 250.54 67.11C251.08 67.45 251.73 67.56 252.35 67.42L252.35 67.42C253.61 67.14 254.41 65.91 254.17 64.64C253.17 58.8 250.54 42.85 249.84 38.88Z" />
			<path id="Rectangle 1939" class="shp4" d="M268.97 15.6L296.19 15.6C298.96 15.6 301.19 17.84 301.19 20.6L301.19 40.69C301.19 43.45 298.96 45.69 296.19 45.69L268.97 45.69C266.2 45.69 263.97 43.45 263.97 40.69L263.97 20.6C263.97 17.84 266.2 15.6 268.97 15.6Z" />
			<path id="Rectangle 1940" class="shp7" d="M263.97 56.49L301.19 56.49L301.19 62.61L263.97 62.61L263.97 56.49Z" />
			<path id="Rectangle 1941" class="shp7" d="M263.97 68.47L301.19 68.47L301.19 74.59L263.97 74.59L263.97 68.47Z" />
			<path id="Rectangle 1942" class="shp7" d="M263.97 81.87L301.19 81.87L301.19 87.99L263.97 87.99L263.97 81.87Z" />
			<path id="Ellipse 41" class="shp1" d="M297.67 120.86C293.25 120.86 289.68 117.29 289.68 112.87C289.68 108.45 293.25 104.88 297.67 104.88C302.09 104.88 305.66 108.45 305.66 112.87C305.66 117.29 302.09 120.86 297.67 120.86Z" />
			<path id="Path 14178" class="shp8" d="M259.21 178.86C259.21 178.86 267.56 220.6 235.55 235.45C203.55 250.3 201.11 289.55 225.23 329.3L116.12 329.3L122.78 211.79L186.79 175.84L242.46 176.53L259.21 178.86Z" />
			<g id="doctor_two_color">
				<path id="Path 14176" class="shp1" d="M59.84 79.66C59.84 79.66 5.11 87.36 1.16 148.81L38.97 157.8L59.84 79.66Z" />
				<path id="Path 14177" class="shp0" d="M60.52 79.56C60.52 79.56 5.22 86.44 0.16 148.95L38.11 158.77L60.52 79.56Z" />
				<path id="Path 14179" class="shp9" d="M4.39 149.61C4.39 149.61 -12.41 212.01 25.67 212.13L38.19 180.03L31.91 156.18L4.39 149.61Z" />
				<path id="Path 14180" class="shp10" d="M4.39 149.61C4.39 149.61 -12.41 212.01 25.67 212.13L38.19 180.03L31.91 156.18L4.39 149.61Z" />
				<path id="Path 14181" class="shp5" d="M73.77 324.74C73.77 324.74 71.78 330.34 66.73 330.77C61.69 331.21 60.31 336.16 64.92 337.44C69.53 338.71 81.15 332.83 81.15 332.83L80.8 325.55L73.77 324.74Z" />
				<path id="Path 14182" class="shp5" d="M147.73 323.88C147.73 323.88 149.72 329.48 154.77 329.93C159.81 330.37 161.12 335.3 156.58 336.58C152.03 337.85 140.34 331.98 140.34 331.98L140.69 324.69L147.73 323.88Z" />
				<path id="Path 14187" class="shp9" d="M110.51 46.51L107.34 43.39L107.34 43.39C106.8 40.05 106.15 37.54 106.15 37.54C104.99 31.87 96.09 29.13 91.46 33.8C88.75 36.2 87.86 40.05 89.24 43.39L93.4 51.09C95.26 55.84 99.56 57.2 102.8 57.51C104.05 57.62 105.3 57.22 106.26 56.41C107.23 55.59 107.83 54.43 107.93 53.17C108 52.05 108 50.93 107.93 49.81L109.91 49.08C110.43 48.93 110.83 48.5 110.96 47.97C111.08 47.44 110.91 46.88 110.51 46.51Z" />
				<path id="Path 14188" class="shp9" d="M89.76 46.83L87.18 77.73L104.31 77.94L99.43 55.93L89.76 46.83Z" />
				<path id="Path 14189" class="shp11" d="M83.86 38.11C87.05 39.73 87.5 43.69 88.34 47.1L89.35 51.35C92.37 51.97 95.41 50.35 96.58 47.5C97.32 45.89 97.47 44.07 97 42.36C96.77 41.57 96.91 40.72 97.38 40.05C97.84 39.37 98.59 38.94 99.41 38.87L100.82 38.73C102.65 38.5 104.4 37.87 105.95 36.87L105.95 36.87L105.45 30.19" />
				<path id="Path 14190" class="shp9" d="M97.53 47.16C97.53 47.16 96.86 43.58 94.21 44.31C91.55 45.05 92.5 50.22 96.25 50.09L97.53 47.16Z" />
				<path id="Path 14191" class="shp10" d="M99.64 56.56C97.57 56.17 95.65 55.22 94.09 53.82C94.09 53.82 92.9 60.5 101.04 62.8L99.64 56.56Z" />
				<path id="Path 14192" class="shp0" d="M62.4 79.06C62.4 79.06 106.77 65.73 151.99 84.54C197.21 103.35 128.51 224.25 128.51 224.25L59.23 224.25C59.23 224.25 -4.99 92.67 62.4 79.06Z" />
				<path id="Path 14194" class="shp1" d="M103.41 46.83L111.42 46.83L108.03 58.19L94.21 50.49L94.21 49.48L98.49 51.75C99.01 52.03 99.64 52.01 100.14 51.7C100.64 51.4 100.94 50.85 100.92 50.26L100.92 50.26C100.85 48.68 99.91 47.26 98.48 46.57L97.2 45.93L96.12 44.57L98.83 45.86C100.27 46.5 101.83 46.83 103.41 46.83Z" />
				<path id="Path 14195" class="shp8" d="M70.62 109.25L87.07 109.25L94.91 157.17L73.63 157.17C73.63 157.17 64.74 196.62 95.45 224.25L59.23 224.25C59.23 224.25 40.28 178.2 36.73 161.78L35.06 126.2L70.62 109.25Z" />
				<path id="Path 14196" class="shp9" d="M87.41 74.93L95.75 90.34L103.55 74.55C98.21 73.54 92.71 73.67 87.41 74.93L87.41 74.93Z" />
				<path id="Path 14197" class="shp1" d="M27.05 97.08L67.63 97.08L73.63 144.12L33.62 144.12L27.05 97.08Z" />
				<path id="Path 14198" class="shp12" d="M39.95 123.89C44.65 124.76 48.44 128.25 49.67 132.88C52.13 141.05 72.68 136.33 72.68 136.33L73.66 144.12L36.91 144.01L39.95 123.89Z" />
				<path id="Path 14199" class="shp5" d="M38.55 93.53L40.35 100.63L55.2 100.63L53.84 93.53L38.55 93.53Z" />
				<path id="Path 14200" class="shp9" d="M30.6 138.78C30.6 138.78 24.4 126.84 33.47 122.54C42.53 118.24 44.49 134.38 36.87 144.01L30.6 138.78Z" />
				<path id="Path 14201" class="shp5" d="M88.34 47.16C88.34 47.16 93.9 40.09 106.31 38.36C106.31 38.36 111.14 31.37 104.93 26.46C98.71 21.54 83.95 26.53 80.53 33.3C78.62 37.1 77.32 47.24 88.34 47.16Z" />
				<path id="Path 14202" class="shp9" d="M30.69 136.37C30.69 136.37 -2.55 204.41 20.61 211.9C43.78 219.38 38.37 142.79 38.37 142.79L30.69 136.37Z" />
				<path id="Path 14203" class="shp9" d="M129.9 99.02C136.09 86.18 153.01 83.04 163.89 92.28C179.17 105.32 207.31 141.53 212.45 176.13C220.59 230.91 142.7 236.05 142.7 236.05L140.13 224.07C140.13 224.07 191.23 211.23 176.59 175.28C164.88 146.52 119.41 120.77 129.9 99.02Z" />
				<path id="Path 14205" class="shp1" d="M129.64 94.82C129.64 94.82 143.12 78.35 160.25 88.18C177.37 98.02 199.78 134.2 199.78 134.2L161.96 161.51C161.96 161.51 106.97 114.5 129.64 94.82Z" />
				<path id="Path 14206" class="shp0" d="M128.58 93.89C128.58 93.89 142.5 76.87 160.19 87.03C177.88 97.19 201.02 134.56 201.02 134.56L161.96 162.76C161.96 162.76 105.16 114.22 128.58 93.89Z" />
				<path id="Path 14208" class="shp0" d="M128.47 224.25L59.23 224.25L70.8 326.34L83.86 326.34L95.36 243.64L138.42 326.34L151.26 326.34L128.47 224.25Z" />
				<path id="Path 14209" class="shp9" d="M140.13 224.07C140.13 224.07 117.44 229.13 124.16 238.12C130.87 247.1 142.7 236.05 142.7 236.05L140.13 224.07Z" />
				<path id="Path 14210" class="shp1" d="M78.62 97.18C78.5 96.43 76.05 78.56 87.61 73.28L87.61 74.92C77 79.79 79.9 96.75 79.9 96.98L78.62 97.18Z" />
				<path id="Path 14211" class="shp1" d="M110.37 112.72L109.09 112.45C115.79 79.83 103.41 74.55 103.28 74.5L103.28 73.09C103.87 73.29 117.3 79 110.37 112.72Z" />
				<path id="Path 14212" class="shp1" d="M117.74 131.32L115.24 130.71C115.24 130.62 117.37 121.72 114.17 117.3C113.11 115.86 111.44 115 109.65 114.97C107.87 114.74 106.08 115.33 104.77 116.57C100.74 120.42 101.11 129.69 101.11 129.78L98.55 129.9C98.55 129.47 98.12 119.46 102.97 114.74C104.82 112.96 107.36 112.11 109.91 112.4C112.45 112.48 114.82 113.73 116.33 115.79C120.18 121.14 117.83 130.9 117.74 131.32Z" />
				<path id="Ellipse 42" class="shp5" d="M110.06 115.94C108.73 115.94 107.65 114.86 107.65 113.53C107.65 112.19 108.73 111.11 110.06 111.11C111.4 111.11 112.48 112.19 112.48 113.53C112.48 114.86 111.4 115.94 110.06 115.94Z" />
				<path id="Ellipse 43" class="shp1" d="M79.49 102.53C76.92 102.53 74.84 100.45 74.84 97.88C74.84 95.31 76.92 93.23 79.49 93.23C82.06 93.23 84.14 95.31 84.14 97.88C84.14 100.45 82.06 102.53 79.49 102.53Z" />
				<path id="Ellipse 44" class="shp5" d="M79.49 100.52C78.03 100.52 76.85 99.34 76.85 97.88C76.85 96.42 78.03 95.23 79.49 95.23C80.96 95.23 82.14 96.42 82.14 97.88C82.14 99.34 80.96 100.52 79.49 100.52Z" />
				<path id="Path 14213" class="shp1" d="M103.73 142.71C98.28 139.99 99.08 127.54 99.12 127.01L100.41 127.1C100.41 127.23 99.61 139.22 104.26 141.57L103.73 142.71Z" />
				<path id="Ellipse 45" class="shp5" d="M104.48 143.99C103.28 143.99 102.32 143.03 102.32 141.84C102.32 140.65 103.28 139.68 104.48 139.68C105.67 139.68 106.63 140.65 106.63 141.84C106.63 143.03 105.67 143.99 104.48 143.99Z" />
				<path id="Path 14214" class="shp1" d="M110.78 142.49L110.37 141.29C115.35 139.63 116.29 127.64 116.3 127.51L117.59 127.61C117.53 128.13 116.57 140.58 110.78 142.49Z" />
				<path id="Ellipse 46" class="shp5" d="M110.18 143.69C108.98 143.69 108.02 142.72 108.02 141.53C108.02 140.34 108.98 139.37 110.18 139.37C111.37 139.37 112.33 140.34 112.33 141.53C112.33 142.72 111.37 143.69 110.18 143.69Z" />
			</g>
		</g>
	</g>
</svg>