<svg xmlns="http://www.w3.org/2000/svg" viewBox="0 0 683 619" width="683" height="619">
	<defs>
		<clipPath clipPathUnits="userSpaceOnUse" id="cp1">
			<path d="M0 -111L1366 -111L1366 3973L0 3973Z" />
		</clipPath>
	</defs>
	<style>
		tspan { white-space:pre }
		.shp0 { opacity: 0.322;fill: #e6f3ff } 
	</style>
	<g id="Web 1366 – 8" clip-path="url(#cp1)">
		<path id="Path 15701" class="shp0" d="M-236.37 141.25C-174.99 70.77 -53.78 161.96 121.84 122.05C273.95 87.47 282.7 -4.39 404.23 0.16C493.02 3.47 589.77 54.74 642.94 144.06C701.58 242.54 680.27 342.8 674.28 367.13C647.57 476.25 568.29 533.81 540.32 553.47C425.08 634.43 295.76 620.24 233.72 613.47C0.69 587.94 -248.8 421.57 -259.91 240.69C-261.38 217.01 -264.07 173.08 -236.37 141.25Z" />
	</g>
</svg>